# xmcd CD database file
#
# Track frame offsets:
#	150
#	14357
#	32979
#	47174
#	62370
#	75615
#	93168
#	102104
#	115762
#	128255
#	139869
#	151705
#	161851
#	177278
#
# Disc length: 2521 seconds
#
# Revision: 0
# Processed by: cddbd v1.5.2PL0 Copyright (c) Steve Scherf et al.
# Submitted via: CDex 1.51
#
DISCID=a309d70e
DTITLE=get up and dance special nr.56 - get up and dance special nr.56
DYEAR=1900
DGENRE=Country
TTITLE0=Lookin'@ You
TTITLE1=Blue Bayou Dreams x
TTITLE2=Sway Me
TTITLE3=Charonga
TTITLE4=Top Of The World
TTITLE5=Silver Moon
TTITLE6=Wake Up Little Susie
TTITLE7=Dance For You
TTITLE8=Ringing Bells
TTITLE9=Chirpy Charelston
TTITLE10=Dry Town
TTITLE11=Double Shuffle
TTITLE12=Lonely Wins
TTITLE13=Ain't Gonna Work That Hard
EXTD=
EXTT0=
EXTT1=
EXTT2=
EXTT3=
EXTT4=
EXTT5=
EXTT6=
EXTT7=
EXTT8=
EXTT9=
EXTT10=
EXTT11=
EXTT12=
EXTT13=
PLAYORDER=
